<svg xmlns="http://www.w3.org/2000/svg" xmlns:xlink="http://www.w3.org/1999/xlink" width="1080" zoomAndPan="magnify" viewBox="0 0 810 1439.999935" height="1920" preserveAspectRatio="xMidYMid meet" version="1.0"><defs><g/><clipPath id="77077c7ede"><path d="M 81 488.898438 L 739.96875 488.898438 L 739.96875 599.136719 L 81 599.136719 Z M 81 488.898438 " clip-rule="nonzero"/></clipPath></defs><g clip-path="url(#77077c7ede)"><path fill="#ffd700" d="M 81 488.898438 L 739.96875 488.898438 L 739.96875 599.136719 L 81 599.136719 Z M 81 488.898438 " fill-opacity="1" fill-rule="nonzero"/></g><g fill="#000000" fill-opacity="1"><g transform="translate(178.07029, 561.983362)"><g><path d="M 4.5 -37.984375 L 21.765625 -37.984375 C 25.890625 -37.984375 29.53125 -37.195312 32.6875 -35.625 C 35.851562 -34.050781 38.3125 -31.832031 40.0625 -28.96875 C 41.820312 -26.113281 42.703125 -22.789062 42.703125 -19 C 42.703125 -15.195312 41.820312 -11.863281 40.0625 -9 C 38.3125 -6.144531 35.851562 -3.929688 32.6875 -2.359375 C 29.53125 -0.785156 25.890625 0 21.765625 0 L 4.5 0 Z M 21.328125 -7.21875 C 25.128906 -7.21875 28.160156 -8.273438 30.421875 -10.390625 C 32.679688 -12.503906 33.8125 -15.375 33.8125 -19 C 33.8125 -22.613281 32.679688 -25.476562 30.421875 -27.59375 C 28.160156 -29.707031 25.128906 -30.765625 21.328125 -30.765625 L 13.296875 -30.765625 L 13.296875 -7.21875 Z M 21.328125 -7.21875 "/></g></g></g><g fill="#000000" fill-opacity="1"><g transform="translate(222.886389, 561.983362)"><g><path d="M 32.5 -14.484375 C 32.5 -14.378906 32.445312 -13.617188 32.34375 -12.203125 L 10.25 -12.203125 C 10.65625 -10.398438 11.597656 -8.972656 13.078125 -7.921875 C 14.554688 -6.867188 16.398438 -6.34375 18.609375 -6.34375 C 20.128906 -6.34375 21.476562 -6.566406 22.65625 -7.015625 C 23.832031 -7.472656 24.925781 -8.191406 25.9375 -9.171875 L 30.4375 -4.28125 C 27.6875 -1.132812 23.671875 0.4375 18.390625 0.4375 C 15.097656 0.4375 12.1875 -0.203125 9.65625 -1.484375 C 7.125 -2.773438 5.171875 -4.554688 3.796875 -6.828125 C 2.421875 -9.109375 1.734375 -11.695312 1.734375 -14.59375 C 1.734375 -17.457031 2.410156 -20.035156 3.765625 -22.328125 C 5.128906 -24.628906 6.992188 -26.421875 9.359375 -27.703125 C 11.734375 -28.984375 14.382812 -29.625 17.3125 -29.625 C 20.164062 -29.625 22.75 -29.007812 25.0625 -27.78125 C 27.382812 -26.550781 29.203125 -24.785156 30.515625 -22.484375 C 31.835938 -20.191406 32.5 -17.523438 32.5 -14.484375 Z M 17.359375 -23.21875 C 15.441406 -23.21875 13.832031 -22.675781 12.53125 -21.59375 C 11.226562 -20.507812 10.429688 -19.023438 10.140625 -17.140625 L 24.53125 -17.140625 C 24.238281 -18.992188 23.441406 -20.46875 22.140625 -21.5625 C 20.835938 -22.664062 19.242188 -23.21875 17.359375 -23.21875 Z M 17.359375 -23.21875 "/></g></g></g><g fill="#000000" fill-opacity="1"><g transform="translate(257.122415, 561.983362)"><g><path d="M 12 -25.34375 C 13.007812 -26.75 14.375 -27.8125 16.09375 -28.53125 C 17.8125 -29.257812 19.789062 -29.625 22.03125 -29.625 L 22.03125 -21.8125 C 21.09375 -21.882812 20.457031 -21.921875 20.125 -21.921875 C 17.707031 -21.921875 15.8125 -21.242188 14.4375 -19.890625 C 13.0625 -18.535156 12.375 -16.5 12.375 -13.78125 L 12.375 0 L 3.90625 0 L 3.90625 -29.1875 L 12 -29.1875 Z M 12 -25.34375 "/></g></g></g><g fill="#000000" fill-opacity="1"><g transform="translate(280.507082, 561.983362)"><g><path d="M 41.296875 -29.625 C 44.953125 -29.625 47.851562 -28.546875 50 -26.390625 C 52.15625 -24.242188 53.234375 -21.019531 53.234375 -16.71875 L 53.234375 0 L 44.765625 0 L 44.765625 -15.40625 C 44.765625 -17.726562 44.285156 -19.457031 43.328125 -20.59375 C 42.367188 -21.726562 41.003906 -22.296875 39.234375 -22.296875 C 37.242188 -22.296875 35.671875 -21.65625 34.515625 -20.375 C 33.359375 -19.09375 32.78125 -17.1875 32.78125 -14.65625 L 32.78125 0 L 24.3125 0 L 24.3125 -15.40625 C 24.3125 -20 22.46875 -22.296875 18.78125 -22.296875 C 16.820312 -22.296875 15.265625 -21.65625 14.109375 -20.375 C 12.953125 -19.09375 12.375 -17.1875 12.375 -14.65625 L 12.375 0 L 3.90625 0 L 3.90625 -29.1875 L 12 -29.1875 L 12 -25.828125 C 13.082031 -27.054688 14.410156 -27.992188 15.984375 -28.640625 C 17.554688 -29.296875 19.28125 -29.625 21.15625 -29.625 C 23.21875 -29.625 25.082031 -29.21875 26.75 -28.40625 C 28.414062 -27.59375 29.753906 -26.410156 30.765625 -24.859375 C 31.960938 -26.378906 33.472656 -27.550781 35.296875 -28.375 C 37.128906 -29.207031 39.128906 -29.625 41.296875 -29.625 Z M 41.296875 -29.625 "/></g></g></g><g fill="#000000" fill-opacity="1"><g transform="translate(337.422455, 561.983362)"><g><path d="M 15.6875 -29.625 C 20.207031 -29.625 23.675781 -28.546875 26.09375 -26.390625 C 28.519531 -24.242188 29.734375 -21 29.734375 -16.65625 L 29.734375 0 L 21.8125 0 L 21.8125 -3.640625 C 20.21875 -0.921875 17.253906 0.4375 12.921875 0.4375 C 10.671875 0.4375 8.722656 0.0546875 7.078125 -0.703125 C 5.429688 -1.460938 4.175781 -2.507812 3.3125 -3.84375 C 2.445312 -5.1875 2.015625 -6.707031 2.015625 -8.40625 C 2.015625 -11.125 3.035156 -13.257812 5.078125 -14.8125 C 7.117188 -16.363281 10.273438 -17.140625 14.546875 -17.140625 L 21.265625 -17.140625 C 21.265625 -18.992188 20.703125 -20.414062 19.578125 -21.40625 C 18.460938 -22.40625 16.785156 -22.90625 14.546875 -22.90625 C 12.984375 -22.90625 11.453125 -22.660156 9.953125 -22.171875 C 8.453125 -21.679688 7.175781 -21.019531 6.125 -20.1875 L 3.09375 -26.109375 C 4.6875 -27.222656 6.59375 -28.085938 8.8125 -28.703125 C 11.039062 -29.316406 13.332031 -29.625 15.6875 -29.625 Z M 15.03125 -5.265625 C 16.476562 -5.265625 17.757812 -5.597656 18.875 -6.265625 C 20 -6.929688 20.796875 -7.914062 21.265625 -9.21875 L 21.265625 -12.203125 L 15.46875 -12.203125 C 11.988281 -12.203125 10.25 -11.066406 10.25 -8.796875 C 10.25 -7.703125 10.675781 -6.835938 11.53125 -6.203125 C 12.382812 -5.578125 13.550781 -5.265625 15.03125 -5.265625 Z M 15.03125 -5.265625 "/></g></g></g><g fill="#000000" fill-opacity="1"><g transform="translate(370.898882, 561.983362)"><g><path d="M 22.734375 -1.40625 C 21.898438 -0.789062 20.878906 -0.328125 19.671875 -0.015625 C 18.460938 0.285156 17.1875 0.4375 15.84375 0.4375 C 12.375 0.4375 9.6875 -0.445312 7.78125 -2.21875 C 5.882812 -4 4.9375 -6.609375 4.9375 -10.046875 L 4.9375 -22.03125 L 0.4375 -22.03125 L 0.4375 -28.546875 L 4.9375 -28.546875 L 4.9375 -35.65625 L 13.40625 -35.65625 L 13.40625 -28.546875 L 20.671875 -28.546875 L 20.671875 -22.03125 L 13.40625 -22.03125 L 13.40625 -10.140625 C 13.40625 -8.910156 13.71875 -7.960938 14.34375 -7.296875 C 14.976562 -6.628906 15.878906 -6.296875 17.046875 -6.296875 C 18.378906 -6.296875 19.515625 -6.65625 20.453125 -7.375 Z M 22.734375 -1.40625 "/></g></g></g><g fill="#000000" fill-opacity="1"><g transform="translate(394.500578, 561.983362)"><g><path d="M 17.796875 0.4375 C 14.722656 0.4375 11.960938 -0.203125 9.515625 -1.484375 C 7.078125 -2.773438 5.171875 -4.554688 3.796875 -6.828125 C 2.421875 -9.109375 1.734375 -11.695312 1.734375 -14.59375 C 1.734375 -17.488281 2.421875 -20.078125 3.796875 -22.359375 C 5.171875 -24.640625 7.078125 -26.421875 9.515625 -27.703125 C 11.960938 -28.984375 14.722656 -29.625 17.796875 -29.625 C 20.867188 -29.625 23.617188 -28.984375 26.046875 -27.703125 C 28.472656 -26.421875 30.375 -24.640625 31.75 -22.359375 C 33.125 -20.078125 33.8125 -17.488281 33.8125 -14.59375 C 33.8125 -11.695312 33.125 -9.109375 31.75 -6.828125 C 30.375 -4.554688 28.472656 -2.773438 26.046875 -1.484375 C 23.617188 -0.203125 20.867188 0.4375 17.796875 0.4375 Z M 17.796875 -6.515625 C 19.972656 -6.515625 21.753906 -7.242188 23.140625 -8.703125 C 24.535156 -10.171875 25.234375 -12.132812 25.234375 -14.59375 C 25.234375 -17.050781 24.535156 -19.015625 23.140625 -20.484375 C 21.753906 -21.953125 19.972656 -22.6875 17.796875 -22.6875 C 15.628906 -22.6875 13.835938 -21.953125 12.421875 -20.484375 C 11.015625 -19.015625 10.3125 -17.050781 10.3125 -14.59375 C 10.3125 -12.132812 11.015625 -10.171875 12.421875 -8.703125 C 13.835938 -7.242188 15.628906 -6.515625 17.796875 -6.515625 Z M 17.796875 -6.515625 "/></g></g></g><g fill="#000000" fill-opacity="1"><g transform="translate(430.038775, 561.983362)"><g><path d="M 3.90625 -40.265625 L 12.375 -40.265625 L 12.375 0 L 3.90625 0 Z M 3.90625 -40.265625 "/></g></g></g><g fill="#000000" fill-opacity="1"><g transform="translate(446.370059, 561.983362)"><g><path d="M 17.796875 0.4375 C 14.722656 0.4375 11.960938 -0.203125 9.515625 -1.484375 C 7.078125 -2.773438 5.171875 -4.554688 3.796875 -6.828125 C 2.421875 -9.109375 1.734375 -11.695312 1.734375 -14.59375 C 1.734375 -17.488281 2.421875 -20.078125 3.796875 -22.359375 C 5.171875 -24.640625 7.078125 -26.421875 9.515625 -27.703125 C 11.960938 -28.984375 14.722656 -29.625 17.796875 -29.625 C 20.867188 -29.625 23.617188 -28.984375 26.046875 -27.703125 C 28.472656 -26.421875 30.375 -24.640625 31.75 -22.359375 C 33.125 -20.078125 33.8125 -17.488281 33.8125 -14.59375 C 33.8125 -11.695312 33.125 -9.109375 31.75 -6.828125 C 30.375 -4.554688 28.472656 -2.773438 26.046875 -1.484375 C 23.617188 -0.203125 20.867188 0.4375 17.796875 0.4375 Z M 17.796875 -6.515625 C 19.972656 -6.515625 21.753906 -7.242188 23.140625 -8.703125 C 24.535156 -10.171875 25.234375 -12.132812 25.234375 -14.59375 C 25.234375 -17.050781 24.535156 -19.015625 23.140625 -20.484375 C 21.753906 -21.953125 19.972656 -22.6875 17.796875 -22.6875 C 15.628906 -22.6875 13.835938 -21.953125 12.421875 -20.484375 C 11.015625 -19.015625 10.3125 -17.050781 10.3125 -14.59375 C 10.3125 -12.132812 11.015625 -10.171875 12.421875 -8.703125 C 13.835938 -7.242188 15.628906 -6.515625 17.796875 -6.515625 Z M 17.796875 -6.515625 "/></g></g></g><g fill="#000000" fill-opacity="1"><g transform="translate(481.908256, 561.983362)"><g><path d="M 34.03125 -29.1875 L 34.03125 -4.890625 C 34.03125 0.460938 32.632812 4.441406 29.84375 7.046875 C 27.0625 9.660156 22.992188 10.96875 17.640625 10.96875 C 14.816406 10.96875 12.140625 10.625 9.609375 9.9375 C 7.078125 9.25 4.976562 8.253906 3.3125 6.953125 L 6.671875 0.875 C 7.898438 1.882812 9.453125 2.6875 11.328125 3.28125 C 13.210938 3.875 15.097656 4.171875 16.984375 4.171875 C 19.910156 4.171875 22.070312 3.507812 23.46875 2.1875 C 24.863281 0.875 25.5625 -1.117188 25.5625 -3.796875 L 25.5625 -5.046875 C 23.351562 -2.617188 20.273438 -1.40625 16.328125 -1.40625 C 13.648438 -1.40625 11.195312 -1.992188 8.96875 -3.171875 C 6.75 -4.347656 4.988281 -6.003906 3.6875 -8.140625 C 2.382812 -10.273438 1.734375 -12.734375 1.734375 -15.515625 C 1.734375 -18.304688 2.382812 -20.769531 3.6875 -22.90625 C 4.988281 -25.039062 6.75 -26.691406 8.96875 -27.859375 C 11.195312 -29.035156 13.648438 -29.625 16.328125 -29.625 C 20.566406 -29.625 23.789062 -28.234375 26 -25.453125 L 26 -29.1875 Z M 18.015625 -8.359375 C 20.253906 -8.359375 22.085938 -9.015625 23.515625 -10.328125 C 24.953125 -11.648438 25.671875 -13.378906 25.671875 -15.515625 C 25.671875 -17.648438 24.953125 -19.378906 23.515625 -20.703125 C 22.085938 -22.023438 20.253906 -22.6875 18.015625 -22.6875 C 15.773438 -22.6875 13.929688 -22.023438 12.484375 -20.703125 C 11.035156 -19.378906 10.3125 -17.648438 10.3125 -15.515625 C 10.3125 -13.378906 11.035156 -11.648438 12.484375 -10.328125 C 13.929688 -9.015625 15.773438 -8.359375 18.015625 -8.359375 Z M 18.015625 -8.359375 "/></g></g></g><g fill="#000000" fill-opacity="1"><g transform="translate(519.888002, 561.983362)"><g><path d="M 32.890625 -29.1875 L 19.703125 1.796875 C 18.359375 5.160156 16.703125 7.53125 14.734375 8.90625 C 12.765625 10.28125 10.382812 10.96875 7.59375 10.96875 C 6.070312 10.96875 4.570312 10.726562 3.09375 10.25 C 1.613281 9.78125 0.398438 9.128906 -0.546875 8.296875 L 2.546875 2.28125 C 3.203125 2.851562 3.953125 3.300781 4.796875 3.625 C 5.648438 3.957031 6.492188 4.125 7.328125 4.125 C 8.484375 4.125 9.421875 3.84375 10.140625 3.28125 C 10.867188 2.71875 11.519531 1.785156 12.09375 0.484375 L 12.203125 0.21875 L -0.4375 -29.1875 L 8.296875 -29.1875 L 16.5 -9.390625 L 24.75 -29.1875 Z M 32.890625 -29.1875 "/></g></g></g><g fill="#000000" fill-opacity="1"><g transform="translate(552.320767, 561.983362)"><g/></g></g></svg>