<svg xmlns="http://www.w3.org/2000/svg" xmlns:xlink="http://www.w3.org/1999/xlink" width="1080" zoomAndPan="magnify" viewBox="0 0 810 1439.999935" height="1920" preserveAspectRatio="xMidYMid meet" version="1.0"><defs><g/><clipPath id="9ac2b97d25"><path d="M 40.5 662.929688 L 709.570312 662.929688 L 709.570312 777.070312 L 40.5 777.070312 Z M 40.5 662.929688 " clip-rule="nonzero"/></clipPath></defs><g clip-path="url(#9ac2b97d25)"><path fill="#ffd700" d="M 40.5 662.929688 L 709.570312 662.929688 L 709.570312 777.070312 L 40.5 777.070312 Z M 40.5 662.929688 " fill-opacity="1" fill-rule="nonzero"/></g><g fill="#000000" fill-opacity="1"><g transform="translate(133.929074, 738.601206)"><g><path d="M 21.6875 -39.328125 C 25.164062 -39.328125 28.1875 -38.742188 30.75 -37.578125 C 33.320312 -36.421875 35.300781 -34.773438 36.6875 -32.640625 C 38.070312 -30.503906 38.765625 -27.976562 38.765625 -25.0625 C 38.765625 -22.175781 38.070312 -19.65625 36.6875 -17.5 C 35.300781 -15.34375 33.320312 -13.691406 30.75 -12.546875 C 28.1875 -11.410156 25.164062 -10.84375 21.6875 -10.84375 L 13.765625 -10.84375 L 13.765625 0 L 4.65625 0 L 4.65625 -39.328125 Z M 21.1875 -18.265625 C 23.914062 -18.265625 25.988281 -18.851562 27.40625 -20.03125 C 28.832031 -21.207031 29.546875 -22.882812 29.546875 -25.0625 C 29.546875 -27.269531 28.832031 -28.960938 27.40625 -30.140625 C 25.988281 -31.328125 23.914062 -31.921875 21.1875 -31.921875 L 13.765625 -31.921875 L 13.765625 -18.265625 Z M 21.1875 -18.265625 "/></g></g></g><g fill="#000000" fill-opacity="1"><g transform="translate(175.050342, 738.601206)"><g><path d="M 4.046875 -41.6875 L 12.8125 -41.6875 L 12.8125 0 L 4.046875 0 Z M 4.046875 -41.6875 "/></g></g></g><g fill="#000000" fill-opacity="1"><g transform="translate(191.959486, 738.601206)"><g><path d="M 16.234375 -30.671875 C 20.921875 -30.671875 24.519531 -29.554688 27.03125 -27.328125 C 29.539062 -25.097656 30.796875 -21.738281 30.796875 -17.25 L 30.796875 0 L 22.59375 0 L 22.59375 -3.765625 C 20.9375 -0.953125 17.863281 0.453125 13.375 0.453125 C 11.050781 0.453125 9.035156 0.0625 7.328125 -0.71875 C 5.628906 -1.507812 4.328125 -2.597656 3.421875 -3.984375 C 2.523438 -5.367188 2.078125 -6.941406 2.078125 -8.703125 C 2.078125 -11.515625 3.132812 -13.722656 5.25 -15.328125 C 7.363281 -16.941406 10.632812 -17.75 15.0625 -17.75 L 22.03125 -17.75 C 22.03125 -19.664062 21.445312 -21.140625 20.28125 -22.171875 C 19.125 -23.203125 17.382812 -23.71875 15.0625 -23.71875 C 13.445312 -23.71875 11.863281 -23.460938 10.3125 -22.953125 C 8.757812 -22.441406 7.4375 -21.757812 6.34375 -20.90625 L 3.203125 -27.03125 C 4.847656 -28.1875 6.820312 -29.082031 9.125 -29.71875 C 11.4375 -30.351562 13.804688 -30.671875 16.234375 -30.671875 Z M 15.5625 -5.453125 C 17.0625 -5.453125 18.390625 -5.796875 19.546875 -6.484375 C 20.710938 -7.179688 21.539062 -8.203125 22.03125 -9.546875 L 22.03125 -12.640625 L 16.015625 -12.640625 C 12.421875 -12.640625 10.625 -11.460938 10.625 -9.109375 C 10.625 -7.984375 11.0625 -7.09375 11.9375 -6.4375 C 12.820312 -5.78125 14.03125 -5.453125 15.5625 -5.453125 Z M 15.5625 -5.453125 "/></g></g></g><g fill="#000000" fill-opacity="1"><g transform="translate(226.620429, 738.601206)"><g><path d="M 14.21875 0.453125 C 11.707031 0.453125 9.253906 0.144531 6.859375 -0.46875 C 4.460938 -1.09375 2.550781 -1.875 1.125 -2.8125 L 4.046875 -9.109375 C 5.390625 -8.242188 7.015625 -7.539062 8.921875 -7 C 10.835938 -6.457031 12.710938 -6.1875 14.546875 -6.1875 C 18.253906 -6.1875 20.109375 -7.101562 20.109375 -8.9375 C 20.109375 -9.789062 19.601562 -10.40625 18.59375 -10.78125 C 17.582031 -11.15625 16.03125 -11.476562 13.9375 -11.75 C 11.457031 -12.125 9.410156 -12.550781 7.796875 -13.03125 C 6.191406 -13.519531 4.800781 -14.378906 3.625 -15.609375 C 2.445312 -16.847656 1.859375 -18.613281 1.859375 -20.90625 C 1.859375 -22.8125 2.410156 -24.503906 3.515625 -25.984375 C 4.617188 -27.460938 6.226562 -28.613281 8.34375 -29.4375 C 10.457031 -30.257812 12.957031 -30.671875 15.84375 -30.671875 C 17.976562 -30.671875 20.101562 -30.4375 22.21875 -29.96875 C 24.332031 -29.507812 26.082031 -28.863281 27.46875 -28.03125 L 24.546875 -21.796875 C 21.890625 -23.296875 18.988281 -24.046875 15.84375 -24.046875 C 13.96875 -24.046875 12.5625 -23.78125 11.625 -23.25 C 10.6875 -22.726562 10.21875 -22.054688 10.21875 -21.234375 C 10.21875 -20.296875 10.722656 -19.640625 11.734375 -19.265625 C 12.753906 -18.890625 14.367188 -18.535156 16.578125 -18.203125 C 19.046875 -17.796875 21.066406 -17.359375 22.640625 -16.890625 C 24.210938 -16.421875 25.578125 -15.566406 26.734375 -14.328125 C 27.898438 -13.085938 28.484375 -11.363281 28.484375 -9.15625 C 28.484375 -7.28125 27.921875 -5.613281 26.796875 -4.15625 C 25.671875 -2.695312 24.03125 -1.5625 21.875 -0.75 C 19.726562 0.0507812 17.175781 0.453125 14.21875 0.453125 Z M 14.21875 0.453125 "/></g></g></g><g fill="#000000" fill-opacity="1"><g transform="translate(256.450201, 738.601206)"><g><path d="M 23.546875 -1.453125 C 22.679688 -0.816406 21.617188 -0.335938 20.359375 -0.015625 C 19.109375 0.296875 17.789062 0.453125 16.40625 0.453125 C 12.8125 0.453125 10.03125 -0.460938 8.0625 -2.296875 C 6.09375 -4.140625 5.109375 -6.835938 5.109375 -10.390625 L 5.109375 -22.8125 L 0.453125 -22.8125 L 0.453125 -29.546875 L 5.109375 -29.546875 L 5.109375 -36.921875 L 13.875 -36.921875 L 13.875 -29.546875 L 21.40625 -29.546875 L 21.40625 -22.8125 L 13.875 -22.8125 L 13.875 -10.5 C 13.875 -9.226562 14.203125 -8.242188 14.859375 -7.546875 C 15.515625 -6.859375 16.441406 -6.515625 17.640625 -6.515625 C 19.023438 -6.515625 20.207031 -6.890625 21.1875 -7.640625 Z M 23.546875 -1.453125 "/></g></g></g><g fill="#000000" fill-opacity="1"><g transform="translate(280.887009, 738.601206)"><g><path d="M 4.046875 -30.234375 L 12.8125 -30.234375 L 12.8125 0 L 4.046875 0 Z M 8.421875 -34.4375 C 6.816406 -34.4375 5.503906 -34.90625 4.484375 -35.84375 C 3.472656 -36.78125 2.96875 -37.941406 2.96875 -39.328125 C 2.96875 -40.710938 3.472656 -41.875 4.484375 -42.8125 C 5.503906 -43.75 6.816406 -44.21875 8.421875 -44.21875 C 10.035156 -44.21875 11.347656 -43.765625 12.359375 -42.859375 C 13.367188 -41.960938 13.875 -40.84375 13.875 -39.5 C 13.875 -38.039062 13.367188 -36.832031 12.359375 -35.875 C 11.347656 -34.914062 10.035156 -34.4375 8.421875 -34.4375 Z M 8.421875 -34.4375 "/></g></g></g><g fill="#000000" fill-opacity="1"><g transform="translate(297.796154, 738.601206)"><g><path d="M 18.65625 0.453125 C 15.4375 0.453125 12.539062 -0.210938 9.96875 -1.546875 C 7.40625 -2.878906 5.398438 -4.722656 3.953125 -7.078125 C 2.515625 -9.441406 1.796875 -12.117188 1.796875 -15.109375 C 1.796875 -18.109375 2.515625 -20.785156 3.953125 -23.140625 C 5.398438 -25.503906 7.40625 -27.347656 9.96875 -28.671875 C 12.539062 -30.003906 15.4375 -30.671875 18.65625 -30.671875 C 21.84375 -30.671875 24.625 -30.003906 27 -28.671875 C 29.375 -27.347656 31.109375 -25.453125 32.203125 -22.984375 L 25.390625 -19.328125 C 23.816406 -22.097656 21.550781 -23.484375 18.59375 -23.484375 C 16.3125 -23.484375 14.421875 -22.734375 12.921875 -21.234375 C 11.421875 -19.734375 10.671875 -17.691406 10.671875 -15.109375 C 10.671875 -12.523438 11.421875 -10.484375 12.921875 -8.984375 C 14.421875 -7.492188 16.3125 -6.75 18.59375 -6.75 C 21.59375 -6.75 23.859375 -8.132812 25.390625 -10.90625 L 32.203125 -7.1875 C 31.109375 -4.789062 29.375 -2.914062 27 -1.5625 C 24.625 -0.21875 21.84375 0.453125 18.65625 0.453125 Z M 18.65625 0.453125 "/></g></g></g><g fill="#000000" fill-opacity="1"><g transform="translate(330.996519, 738.601206)"><g/></g></g><g fill="#000000" fill-opacity="1"><g transform="translate(346.894501, 738.601206)"><g><path d="M 14.21875 0.453125 C 11.707031 0.453125 9.253906 0.144531 6.859375 -0.46875 C 4.460938 -1.09375 2.550781 -1.875 1.125 -2.8125 L 4.046875 -9.109375 C 5.390625 -8.242188 7.015625 -7.539062 8.921875 -7 C 10.835938 -6.457031 12.710938 -6.1875 14.546875 -6.1875 C 18.253906 -6.1875 20.109375 -7.101562 20.109375 -8.9375 C 20.109375 -9.789062 19.601562 -10.40625 18.59375 -10.78125 C 17.582031 -11.15625 16.03125 -11.476562 13.9375 -11.75 C 11.457031 -12.125 9.410156 -12.550781 7.796875 -13.03125 C 6.191406 -13.519531 4.800781 -14.378906 3.625 -15.609375 C 2.445312 -16.847656 1.859375 -18.613281 1.859375 -20.90625 C 1.859375 -22.8125 2.410156 -24.503906 3.515625 -25.984375 C 4.617188 -27.460938 6.226562 -28.613281 8.34375 -29.4375 C 10.457031 -30.257812 12.957031 -30.671875 15.84375 -30.671875 C 17.976562 -30.671875 20.101562 -30.4375 22.21875 -29.96875 C 24.332031 -29.507812 26.082031 -28.863281 27.46875 -28.03125 L 24.546875 -21.796875 C 21.890625 -23.296875 18.988281 -24.046875 15.84375 -24.046875 C 13.96875 -24.046875 12.5625 -23.78125 11.625 -23.25 C 10.6875 -22.726562 10.21875 -22.054688 10.21875 -21.234375 C 10.21875 -20.296875 10.722656 -19.640625 11.734375 -19.265625 C 12.753906 -18.890625 14.367188 -18.535156 16.578125 -18.203125 C 19.046875 -17.796875 21.066406 -17.359375 22.640625 -16.890625 C 24.210938 -16.421875 25.578125 -15.566406 26.734375 -14.328125 C 27.898438 -13.085938 28.484375 -11.363281 28.484375 -9.15625 C 28.484375 -7.28125 27.921875 -5.613281 26.796875 -4.15625 C 25.671875 -2.695312 24.03125 -1.5625 21.875 -0.75 C 19.726562 0.0507812 17.175781 0.453125 14.21875 0.453125 Z M 14.21875 0.453125 "/></g></g></g><g fill="#000000" fill-opacity="1"><g transform="translate(376.724273, 738.601206)"><g><path d="M 34.5 -30.234375 L 34.5 0 L 26.1875 0 L 26.1875 -3.59375 C 25.019531 -2.28125 23.628906 -1.273438 22.015625 -0.578125 C 20.410156 0.109375 18.671875 0.453125 16.796875 0.453125 C 12.828125 0.453125 9.679688 -0.6875 7.359375 -2.96875 C 5.035156 -5.257812 3.875 -8.648438 3.875 -13.140625 L 3.875 -30.234375 L 12.640625 -30.234375 L 12.640625 -14.4375 C 12.640625 -9.570312 14.679688 -7.140625 18.765625 -7.140625 C 20.859375 -7.140625 22.539062 -7.820312 23.8125 -9.1875 C 25.09375 -10.550781 25.734375 -12.582031 25.734375 -15.28125 L 25.734375 -30.234375 Z M 34.5 -30.234375 "/></g></g></g><g fill="#000000" fill-opacity="1"><g transform="translate(415.317579, 738.601206)"><g><path d="M 12.421875 -26.234375 C 13.460938 -27.703125 14.875 -28.804688 16.65625 -29.546875 C 18.4375 -30.296875 20.488281 -30.671875 22.8125 -30.671875 L 22.8125 -22.59375 C 21.832031 -22.664062 21.175781 -22.703125 20.84375 -22.703125 C 18.332031 -22.703125 16.363281 -22 14.9375 -20.59375 C 13.519531 -19.1875 12.8125 -17.078125 12.8125 -14.265625 L 12.8125 0 L 4.046875 0 L 4.046875 -30.234375 L 12.421875 -30.234375 Z M 12.421875 -26.234375 "/></g></g></g><g fill="#000000" fill-opacity="1"><g transform="translate(439.52968, 738.601206)"><g><path d="M 35.234375 -30.234375 L 35.234375 -5.0625 C 35.234375 0.488281 33.789062 4.609375 30.90625 7.296875 C 28.019531 9.992188 23.804688 11.34375 18.265625 11.34375 C 15.335938 11.34375 12.5625 10.988281 9.9375 10.28125 C 7.320312 9.570312 5.148438 8.539062 3.421875 7.1875 L 6.90625 0.90625 C 8.1875 1.945312 9.800781 2.773438 11.75 3.390625 C 13.695312 4.015625 15.644531 4.328125 17.59375 4.328125 C 20.625 4.328125 22.859375 3.640625 24.296875 2.265625 C 25.742188 0.898438 26.46875 -1.164062 26.46875 -3.9375 L 26.46875 -5.21875 C 24.175781 -2.707031 20.988281 -1.453125 16.90625 -1.453125 C 14.132812 -1.453125 11.597656 -2.0625 9.296875 -3.28125 C 6.992188 -4.5 5.164062 -6.210938 3.8125 -8.421875 C 2.46875 -10.640625 1.796875 -13.1875 1.796875 -16.0625 C 1.796875 -18.945312 2.46875 -21.492188 3.8125 -23.703125 C 5.164062 -25.921875 6.992188 -27.632812 9.296875 -28.84375 C 11.597656 -30.0625 14.132812 -30.671875 16.90625 -30.671875 C 21.289062 -30.671875 24.625 -29.234375 26.90625 -26.359375 L 26.90625 -30.234375 Z M 18.65625 -8.65625 C 20.976562 -8.65625 22.878906 -9.335938 24.359375 -10.703125 C 25.835938 -12.066406 26.578125 -13.851562 26.578125 -16.0625 C 26.578125 -18.28125 25.835938 -20.070312 24.359375 -21.4375 C 22.878906 -22.800781 20.976562 -23.484375 18.65625 -23.484375 C 16.332031 -23.484375 14.421875 -22.800781 12.921875 -21.4375 C 11.421875 -20.070312 10.671875 -18.28125 10.671875 -16.0625 C 10.671875 -13.851562 11.421875 -12.066406 12.921875 -10.703125 C 14.421875 -9.335938 16.332031 -8.65625 18.65625 -8.65625 Z M 18.65625 -8.65625 "/></g></g></g><g fill="#000000" fill-opacity="1"><g transform="translate(478.853285, 738.601206)"><g><path d="M 33.65625 -15 C 33.65625 -14.882812 33.597656 -14.097656 33.484375 -12.640625 L 10.625 -12.640625 C 11.03125 -10.765625 12 -9.285156 13.53125 -8.203125 C 15.070312 -7.117188 16.984375 -6.578125 19.265625 -6.578125 C 20.835938 -6.578125 22.234375 -6.8125 23.453125 -7.28125 C 24.671875 -7.75 25.804688 -8.488281 26.859375 -9.5 L 31.515625 -4.4375 C 28.671875 -1.175781 24.515625 0.453125 19.046875 0.453125 C 15.640625 0.453125 12.625 -0.210938 10 -1.546875 C 7.375 -2.878906 5.347656 -4.722656 3.921875 -7.078125 C 2.503906 -9.441406 1.796875 -12.117188 1.796875 -15.109375 C 1.796875 -18.066406 2.5 -20.734375 3.90625 -23.109375 C 5.3125 -25.492188 7.238281 -27.347656 9.6875 -28.671875 C 12.144531 -30.003906 14.890625 -30.671875 17.921875 -30.671875 C 20.878906 -30.671875 23.554688 -30.035156 25.953125 -28.765625 C 28.347656 -27.492188 30.226562 -25.664062 31.59375 -23.28125 C 32.96875 -20.90625 33.65625 -18.144531 33.65625 -15 Z M 17.984375 -24.046875 C 15.992188 -24.046875 14.320312 -23.484375 12.96875 -22.359375 C 11.625 -21.234375 10.800781 -19.695312 10.5 -17.75 L 25.390625 -17.75 C 25.097656 -19.664062 24.273438 -21.191406 22.921875 -22.328125 C 21.578125 -23.472656 19.929688 -24.046875 17.984375 -24.046875 Z M 17.984375 -24.046875 "/></g></g></g><g fill="#000000" fill-opacity="1"><g transform="translate(514.300705, 738.601206)"><g><path d="M 12.421875 -26.234375 C 13.460938 -27.703125 14.875 -28.804688 16.65625 -29.546875 C 18.4375 -30.296875 20.488281 -30.671875 22.8125 -30.671875 L 22.8125 -22.59375 C 21.832031 -22.664062 21.175781 -22.703125 20.84375 -22.703125 C 18.332031 -22.703125 16.363281 -22 14.9375 -20.59375 C 13.519531 -19.1875 12.8125 -17.078125 12.8125 -14.265625 L 12.8125 0 L 4.046875 0 L 4.046875 -30.234375 L 12.421875 -30.234375 Z M 12.421875 -26.234375 "/></g></g></g><g fill="#000000" fill-opacity="1"><g transform="translate(538.512828, 738.601206)"><g><path d="M 34.046875 -30.234375 L 20.390625 1.859375 C 19.003906 5.335938 17.289062 7.785156 15.25 9.203125 C 13.207031 10.628906 10.742188 11.34375 7.859375 11.34375 C 6.285156 11.34375 4.734375 11.097656 3.203125 10.609375 C 1.671875 10.128906 0.414062 9.457031 -0.5625 8.59375 L 2.640625 2.359375 C 3.316406 2.960938 4.09375 3.429688 4.96875 3.765625 C 5.851562 4.097656 6.722656 4.265625 7.578125 4.265625 C 8.785156 4.265625 9.757812 3.972656 10.5 3.390625 C 11.25 2.816406 11.925781 1.851562 12.53125 0.5 L 12.640625 0.21875 L -0.453125 -30.234375 L 8.59375 -30.234375 L 17.078125 -9.71875 L 25.625 -30.234375 Z M 34.046875 -30.234375 "/></g></g></g></svg>