<svg xmlns="http://www.w3.org/2000/svg" xmlns:xlink="http://www.w3.org/1999/xlink" width="1080" zoomAndPan="magnify" viewBox="0 0 810 1439.999935" height="1920" preserveAspectRatio="xMidYMid meet" version="1.0"><defs><g/><clipPath id="4de06e8d1d"><path d="M 90.84375 504.804688 L 729 504.804688 L 729 611.5625 L 90.84375 611.5625 Z M 90.84375 504.804688 " clip-rule="nonzero"/></clipPath></defs><g clip-path="url(#4de06e8d1d)"><path fill="#ffd700" d="M 90.84375 504.804688 L 729 504.804688 L 729 611.5625 L 90.84375 611.5625 Z M 90.84375 504.804688 " fill-opacity="1" fill-rule="nonzero"/></g><g fill="#000000" fill-opacity="1"><g transform="translate(134.535578, 575.914848)"><g><path d="M 28.59375 -7.890625 L 11.515625 -7.890625 L 8.25 0 L -0.46875 0 L 15.921875 -36.796875 L 24.34375 -36.796875 L 40.78125 0 L 31.859375 0 Z M 25.90625 -14.34375 L 20.078125 -28.4375 L 14.25 -14.34375 Z M 25.90625 -14.34375 "/></g></g></g><g fill="#000000" fill-opacity="1"><g transform="translate(174.783729, 575.914848)"><g><path d="M 31.484375 -14.03125 C 31.484375 -13.925781 31.429688 -13.191406 31.328125 -11.828125 L 9.9375 -11.828125 C 10.320312 -10.078125 11.234375 -8.691406 12.671875 -7.671875 C 14.109375 -6.660156 15.894531 -6.15625 18.03125 -6.15625 C 19.5 -6.15625 20.800781 -6.375 21.9375 -6.8125 C 23.082031 -7.25 24.144531 -7.941406 25.125 -8.890625 L 29.484375 -4.15625 C 26.828125 -1.101562 22.9375 0.421875 17.8125 0.421875 C 14.625 0.421875 11.800781 -0.195312 9.34375 -1.4375 C 6.894531 -2.6875 5.003906 -4.414062 3.671875 -6.625 C 2.347656 -8.832031 1.6875 -11.335938 1.6875 -14.140625 C 1.6875 -16.910156 2.34375 -19.40625 3.65625 -21.625 C 4.96875 -23.851562 6.769531 -25.585938 9.0625 -26.828125 C 11.363281 -28.078125 13.929688 -28.703125 16.765625 -28.703125 C 19.535156 -28.703125 22.039062 -28.101562 24.28125 -26.90625 C 26.519531 -25.71875 28.28125 -24.007812 29.5625 -21.78125 C 30.84375 -19.5625 31.484375 -16.976562 31.484375 -14.03125 Z M 16.8125 -22.5 C 14.957031 -22.5 13.398438 -21.972656 12.140625 -20.921875 C 10.878906 -19.867188 10.109375 -18.429688 9.828125 -16.609375 L 23.765625 -16.609375 C 23.484375 -18.398438 22.707031 -19.828125 21.4375 -20.890625 C 20.175781 -21.960938 18.632812 -22.5 16.8125 -22.5 Z M 16.8125 -22.5 "/></g></g></g><g fill="#000000" fill-opacity="1"><g transform="translate(207.938534, 575.914848)"><g><path d="M 13.296875 0.421875 C 10.953125 0.421875 8.65625 0.132812 6.40625 -0.4375 C 4.164062 -1.019531 2.378906 -1.75 1.046875 -2.625 L 3.78125 -8.515625 C 5.039062 -7.710938 6.5625 -7.054688 8.34375 -6.546875 C 10.132812 -6.035156 11.890625 -5.78125 13.609375 -5.78125 C 17.078125 -5.78125 18.8125 -6.640625 18.8125 -8.359375 C 18.8125 -9.160156 18.335938 -9.738281 17.390625 -10.09375 C 16.453125 -10.445312 15 -10.742188 13.03125 -10.984375 C 10.71875 -11.335938 8.804688 -11.738281 7.296875 -12.1875 C 5.796875 -12.644531 4.492188 -13.453125 3.390625 -14.609375 C 2.285156 -15.765625 1.734375 -17.410156 1.734375 -19.546875 C 1.734375 -21.335938 2.25 -22.925781 3.28125 -24.3125 C 4.3125 -25.695312 5.816406 -26.773438 7.796875 -27.546875 C 9.785156 -28.316406 12.128906 -28.703125 14.828125 -28.703125 C 16.816406 -28.703125 18.800781 -28.484375 20.78125 -28.046875 C 22.769531 -27.609375 24.410156 -27.003906 25.703125 -26.234375 L 22.96875 -20.390625 C 20.476562 -21.796875 17.765625 -22.5 14.828125 -22.5 C 13.066406 -22.5 11.75 -22.253906 10.875 -21.765625 C 10 -21.273438 9.5625 -20.644531 9.5625 -19.875 C 9.5625 -18.988281 10.035156 -18.367188 10.984375 -18.015625 C 11.929688 -17.671875 13.4375 -17.34375 15.5 -17.03125 C 17.8125 -16.644531 19.703125 -16.234375 21.171875 -15.796875 C 22.648438 -15.359375 23.929688 -14.5625 25.015625 -13.40625 C 26.109375 -12.25 26.65625 -10.632812 26.65625 -8.5625 C 26.65625 -6.8125 26.128906 -5.253906 25.078125 -3.890625 C 24.023438 -2.523438 22.488281 -1.460938 20.46875 -0.703125 C 18.457031 0.046875 16.066406 0.421875 13.296875 0.421875 Z M 13.296875 0.421875 "/></g></g></g><g fill="#000000" fill-opacity="1"><g transform="translate(235.839022, 575.914848)"><g><path d="M 22.03125 -1.359375 C 21.21875 -0.765625 20.222656 -0.316406 19.046875 -0.015625 C 17.878906 0.273438 16.644531 0.421875 15.34375 0.421875 C 11.976562 0.421875 9.375 -0.4375 7.53125 -2.15625 C 5.695312 -3.875 4.78125 -6.394531 4.78125 -9.71875 L 4.78125 -21.34375 L 0.421875 -21.34375 L 0.421875 -27.640625 L 4.78125 -27.640625 L 4.78125 -34.53125 L 12.984375 -34.53125 L 12.984375 -27.640625 L 20.03125 -27.640625 L 20.03125 -21.34375 L 12.984375 -21.34375 L 12.984375 -9.828125 C 12.984375 -8.640625 13.289062 -7.71875 13.90625 -7.0625 C 14.519531 -6.414062 15.382812 -6.09375 16.5 -6.09375 C 17.800781 -6.09375 18.90625 -6.445312 19.8125 -7.15625 Z M 22.03125 -1.359375 "/></g></g></g><g fill="#000000" fill-opacity="1"><g transform="translate(258.695344, 575.914848)"><g><path d="M 20.96875 -28.703125 C 24.476562 -28.703125 27.304688 -27.648438 29.453125 -25.546875 C 31.609375 -23.441406 32.6875 -20.320312 32.6875 -16.1875 L 32.6875 0 L 24.5 0 L 24.5 -14.921875 C 24.5 -17.171875 24.003906 -18.847656 23.015625 -19.953125 C 22.035156 -21.054688 20.617188 -21.609375 18.765625 -21.609375 C 16.691406 -21.609375 15.039062 -20.96875 13.8125 -19.6875 C 12.59375 -18.40625 11.984375 -16.503906 11.984375 -13.984375 L 11.984375 0 L 3.78125 0 L 3.78125 -39 L 11.984375 -39 L 11.984375 -25.328125 C 13.066406 -26.421875 14.378906 -27.253906 15.921875 -27.828125 C 17.460938 -28.410156 19.144531 -28.703125 20.96875 -28.703125 Z M 20.96875 -28.703125 "/></g></g></g><g fill="#000000" fill-opacity="1"><g transform="translate(295.002745, 575.914848)"><g><path d="M 31.484375 -14.03125 C 31.484375 -13.925781 31.429688 -13.191406 31.328125 -11.828125 L 9.9375 -11.828125 C 10.320312 -10.078125 11.234375 -8.691406 12.671875 -7.671875 C 14.109375 -6.660156 15.894531 -6.15625 18.03125 -6.15625 C 19.5 -6.15625 20.800781 -6.375 21.9375 -6.8125 C 23.082031 -7.25 24.144531 -7.941406 25.125 -8.890625 L 29.484375 -4.15625 C 26.828125 -1.101562 22.9375 0.421875 17.8125 0.421875 C 14.625 0.421875 11.800781 -0.195312 9.34375 -1.4375 C 6.894531 -2.6875 5.003906 -4.414062 3.671875 -6.625 C 2.347656 -8.832031 1.6875 -11.335938 1.6875 -14.140625 C 1.6875 -16.910156 2.34375 -19.40625 3.65625 -21.625 C 4.96875 -23.851562 6.769531 -25.585938 9.0625 -26.828125 C 11.363281 -28.078125 13.929688 -28.703125 16.765625 -28.703125 C 19.535156 -28.703125 22.039062 -28.101562 24.28125 -26.90625 C 26.519531 -25.71875 28.28125 -24.007812 29.5625 -21.78125 C 30.84375 -19.5625 31.484375 -16.976562 31.484375 -14.03125 Z M 16.8125 -22.5 C 14.957031 -22.5 13.398438 -21.972656 12.140625 -20.921875 C 10.878906 -19.867188 10.109375 -18.429688 9.828125 -16.609375 L 23.765625 -16.609375 C 23.484375 -18.398438 22.707031 -19.828125 21.4375 -20.890625 C 20.175781 -21.960938 18.632812 -22.5 16.8125 -22.5 Z M 16.8125 -22.5 "/></g></g></g><g fill="#000000" fill-opacity="1"><g transform="translate(328.15755, 575.914848)"><g><path d="M 22.03125 -1.359375 C 21.21875 -0.765625 20.222656 -0.316406 19.046875 -0.015625 C 17.878906 0.273438 16.644531 0.421875 15.34375 0.421875 C 11.976562 0.421875 9.375 -0.4375 7.53125 -2.15625 C 5.695312 -3.875 4.78125 -6.394531 4.78125 -9.71875 L 4.78125 -21.34375 L 0.421875 -21.34375 L 0.421875 -27.640625 L 4.78125 -27.640625 L 4.78125 -34.53125 L 12.984375 -34.53125 L 12.984375 -27.640625 L 20.03125 -27.640625 L 20.03125 -21.34375 L 12.984375 -21.34375 L 12.984375 -9.828125 C 12.984375 -8.640625 13.289062 -7.71875 13.90625 -7.0625 C 14.519531 -6.414062 15.382812 -6.09375 16.5 -6.09375 C 17.800781 -6.09375 18.90625 -6.445312 19.8125 -7.15625 Z M 22.03125 -1.359375 "/></g></g></g><g fill="#000000" fill-opacity="1"><g transform="translate(351.013872, 575.914848)"><g><path d="M 3.78125 -28.28125 L 11.984375 -28.28125 L 11.984375 0 L 3.78125 0 Z M 7.890625 -32.21875 C 6.378906 -32.21875 5.148438 -32.65625 4.203125 -33.53125 C 3.253906 -34.40625 2.78125 -35.492188 2.78125 -36.796875 C 2.78125 -38.085938 3.253906 -39.171875 4.203125 -40.046875 C 5.148438 -40.921875 6.378906 -41.359375 7.890625 -41.359375 C 9.390625 -41.359375 10.613281 -40.9375 11.5625 -40.09375 C 12.507812 -39.257812 12.984375 -38.210938 12.984375 -36.953125 C 12.984375 -35.585938 12.507812 -34.457031 11.5625 -33.5625 C 10.613281 -32.664062 9.390625 -32.21875 7.890625 -32.21875 Z M 7.890625 -32.21875 "/></g></g></g><g fill="#000000" fill-opacity="1"><g transform="translate(366.829393, 575.914848)"><g><path d="M 17.453125 0.421875 C 14.441406 0.421875 11.734375 -0.195312 9.328125 -1.4375 C 6.929688 -2.6875 5.054688 -4.414062 3.703125 -6.625 C 2.359375 -8.832031 1.6875 -11.335938 1.6875 -14.140625 C 1.6875 -16.941406 2.359375 -19.445312 3.703125 -21.65625 C 5.054688 -23.863281 6.929688 -25.585938 9.328125 -26.828125 C 11.734375 -28.078125 14.441406 -28.703125 17.453125 -28.703125 C 20.429688 -28.703125 23.03125 -28.078125 25.25 -26.828125 C 27.476562 -25.585938 29.101562 -23.8125 30.125 -21.5 L 23.765625 -18.078125 C 22.285156 -20.671875 20.160156 -21.96875 17.390625 -21.96875 C 15.253906 -21.96875 13.484375 -21.265625 12.078125 -19.859375 C 10.679688 -18.460938 9.984375 -16.554688 9.984375 -14.140625 C 9.984375 -11.722656 10.679688 -9.8125 12.078125 -8.40625 C 13.484375 -7.007812 15.253906 -6.3125 17.390625 -6.3125 C 20.203125 -6.3125 22.328125 -7.609375 23.765625 -10.203125 L 30.125 -6.734375 C 29.101562 -4.484375 27.476562 -2.726562 25.25 -1.46875 C 23.03125 -0.207031 20.429688 0.421875 17.453125 0.421875 Z M 17.453125 0.421875 "/></g></g></g><g fill="#000000" fill-opacity="1"><g transform="translate(397.882475, 575.914848)"><g/></g></g><g fill="#000000" fill-opacity="1"><g transform="translate(412.752232, 575.914848)"><g><path d="M 32.59375 -39 L 32.59375 0 L 24.75 0 L 24.75 -3.265625 C 22.71875 -0.804688 19.773438 0.421875 15.921875 0.421875 C 13.265625 0.421875 10.859375 -0.171875 8.703125 -1.359375 C 6.546875 -2.554688 4.851562 -4.257812 3.625 -6.46875 C 2.394531 -8.675781 1.78125 -11.234375 1.78125 -14.140625 C 1.78125 -17.046875 2.394531 -19.601562 3.625 -21.8125 C 4.851562 -24.019531 6.546875 -25.71875 8.703125 -26.90625 C 10.859375 -28.101562 13.265625 -28.703125 15.921875 -28.703125 C 19.535156 -28.703125 22.359375 -27.5625 24.390625 -25.28125 L 24.390625 -39 Z M 17.34375 -6.3125 C 19.414062 -6.3125 21.132812 -7.019531 22.5 -8.4375 C 23.863281 -9.851562 24.546875 -11.753906 24.546875 -14.140625 C 24.546875 -16.523438 23.863281 -18.425781 22.5 -19.84375 C 21.132812 -21.257812 19.414062 -21.96875 17.34375 -21.96875 C 15.238281 -21.96875 13.503906 -21.257812 12.140625 -19.84375 C 10.773438 -18.425781 10.09375 -16.523438 10.09375 -14.140625 C 10.09375 -11.753906 10.773438 -9.851562 12.140625 -8.4375 C 13.503906 -7.019531 15.238281 -6.3125 17.34375 -6.3125 Z M 17.34375 -6.3125 "/></g></g></g><g fill="#000000" fill-opacity="1"><g transform="translate(449.112177, 575.914848)"><g><path d="M 31.484375 -14.03125 C 31.484375 -13.925781 31.429688 -13.191406 31.328125 -11.828125 L 9.9375 -11.828125 C 10.320312 -10.078125 11.234375 -8.691406 12.671875 -7.671875 C 14.109375 -6.660156 15.894531 -6.15625 18.03125 -6.15625 C 19.5 -6.15625 20.800781 -6.375 21.9375 -6.8125 C 23.082031 -7.25 24.144531 -7.941406 25.125 -8.890625 L 29.484375 -4.15625 C 26.828125 -1.101562 22.9375 0.421875 17.8125 0.421875 C 14.625 0.421875 11.800781 -0.195312 9.34375 -1.4375 C 6.894531 -2.6875 5.003906 -4.414062 3.671875 -6.625 C 2.347656 -8.832031 1.6875 -11.335938 1.6875 -14.140625 C 1.6875 -16.910156 2.34375 -19.40625 3.65625 -21.625 C 4.96875 -23.851562 6.769531 -25.585938 9.0625 -26.828125 C 11.363281 -28.078125 13.929688 -28.703125 16.765625 -28.703125 C 19.535156 -28.703125 22.039062 -28.101562 24.28125 -26.90625 C 26.519531 -25.71875 28.28125 -24.007812 29.5625 -21.78125 C 30.84375 -19.5625 31.484375 -16.976562 31.484375 -14.03125 Z M 16.8125 -22.5 C 14.957031 -22.5 13.398438 -21.972656 12.140625 -20.921875 C 10.878906 -19.867188 10.109375 -18.429688 9.828125 -16.609375 L 23.765625 -16.609375 C 23.484375 -18.398438 22.707031 -19.828125 21.4375 -20.890625 C 20.175781 -21.960938 18.632812 -22.5 16.8125 -22.5 Z M 16.8125 -22.5 "/></g></g></g><g fill="#000000" fill-opacity="1"><g transform="translate(482.266982, 575.914848)"><g><path d="M 20.96875 -28.703125 C 24.476562 -28.703125 27.304688 -27.648438 29.453125 -25.546875 C 31.609375 -23.441406 32.6875 -20.320312 32.6875 -16.1875 L 32.6875 0 L 24.5 0 L 24.5 -14.921875 C 24.5 -17.171875 24.003906 -18.847656 23.015625 -19.953125 C 22.035156 -21.054688 20.617188 -21.609375 18.765625 -21.609375 C 16.691406 -21.609375 15.039062 -20.96875 13.8125 -19.6875 C 12.59375 -18.40625 11.984375 -16.503906 11.984375 -13.984375 L 11.984375 0 L 3.78125 0 L 3.78125 -28.28125 L 11.609375 -28.28125 L 11.609375 -24.96875 C 12.703125 -26.15625 14.050781 -27.070312 15.65625 -27.71875 C 17.269531 -28.375 19.039062 -28.703125 20.96875 -28.703125 Z M 20.96875 -28.703125 "/></g></g></g><g fill="#000000" fill-opacity="1"><g transform="translate(518.574404, 575.914848)"><g><path d="M 22.03125 -1.359375 C 21.21875 -0.765625 20.222656 -0.316406 19.046875 -0.015625 C 17.878906 0.273438 16.644531 0.421875 15.34375 0.421875 C 11.976562 0.421875 9.375 -0.4375 7.53125 -2.15625 C 5.695312 -3.875 4.78125 -6.394531 4.78125 -9.71875 L 4.78125 -21.34375 L 0.421875 -21.34375 L 0.421875 -27.640625 L 4.78125 -27.640625 L 4.78125 -34.53125 L 12.984375 -34.53125 L 12.984375 -27.640625 L 20.03125 -27.640625 L 20.03125 -21.34375 L 12.984375 -21.34375 L 12.984375 -9.828125 C 12.984375 -8.640625 13.289062 -7.71875 13.90625 -7.0625 C 14.519531 -6.414062 15.382812 -6.09375 16.5 -6.09375 C 17.800781 -6.09375 18.90625 -6.445312 19.8125 -7.15625 Z M 22.03125 -1.359375 "/></g></g></g><g fill="#000000" fill-opacity="1"><g transform="translate(541.430747, 575.914848)"><g><path d="M 3.78125 -28.28125 L 11.984375 -28.28125 L 11.984375 0 L 3.78125 0 Z M 7.890625 -32.21875 C 6.378906 -32.21875 5.148438 -32.65625 4.203125 -33.53125 C 3.253906 -34.40625 2.78125 -35.492188 2.78125 -36.796875 C 2.78125 -38.085938 3.253906 -39.171875 4.203125 -40.046875 C 5.148438 -40.921875 6.378906 -41.359375 7.890625 -41.359375 C 9.390625 -41.359375 10.613281 -40.9375 11.5625 -40.09375 C 12.507812 -39.257812 12.984375 -38.210938 12.984375 -36.953125 C 12.984375 -35.585938 12.507812 -34.457031 11.5625 -33.5625 C 10.613281 -32.664062 9.390625 -32.21875 7.890625 -32.21875 Z M 7.890625 -32.21875 "/></g></g></g><g fill="#000000" fill-opacity="1"><g transform="translate(557.246247, 575.914848)"><g><path d="M 13.296875 0.421875 C 10.953125 0.421875 8.65625 0.132812 6.40625 -0.4375 C 4.164062 -1.019531 2.378906 -1.75 1.046875 -2.625 L 3.78125 -8.515625 C 5.039062 -7.710938 6.5625 -7.054688 8.34375 -6.546875 C 10.132812 -6.035156 11.890625 -5.78125 13.609375 -5.78125 C 17.078125 -5.78125 18.8125 -6.640625 18.8125 -8.359375 C 18.8125 -9.160156 18.335938 -9.738281 17.390625 -10.09375 C 16.453125 -10.445312 15 -10.742188 13.03125 -10.984375 C 10.71875 -11.335938 8.804688 -11.738281 7.296875 -12.1875 C 5.796875 -12.644531 4.492188 -13.453125 3.390625 -14.609375 C 2.285156 -15.765625 1.734375 -17.410156 1.734375 -19.546875 C 1.734375 -21.335938 2.25 -22.925781 3.28125 -24.3125 C 4.3125 -25.695312 5.816406 -26.773438 7.796875 -27.546875 C 9.785156 -28.316406 12.128906 -28.703125 14.828125 -28.703125 C 16.816406 -28.703125 18.800781 -28.484375 20.78125 -28.046875 C 22.769531 -27.609375 24.410156 -27.003906 25.703125 -26.234375 L 22.96875 -20.390625 C 20.476562 -21.796875 17.765625 -22.5 14.828125 -22.5 C 13.066406 -22.5 11.75 -22.253906 10.875 -21.765625 C 10 -21.273438 9.5625 -20.644531 9.5625 -19.875 C 9.5625 -18.988281 10.035156 -18.367188 10.984375 -18.015625 C 11.929688 -17.671875 13.4375 -17.34375 15.5 -17.03125 C 17.8125 -16.644531 19.703125 -16.234375 21.171875 -15.796875 C 22.648438 -15.359375 23.929688 -14.5625 25.015625 -13.40625 C 26.109375 -12.25 26.65625 -10.632812 26.65625 -8.5625 C 26.65625 -6.8125 26.128906 -5.253906 25.078125 -3.890625 C 24.023438 -2.523438 22.488281 -1.460938 20.46875 -0.703125 C 18.457031 0.046875 16.066406 0.421875 13.296875 0.421875 Z M 13.296875 0.421875 "/></g></g></g><g fill="#000000" fill-opacity="1"><g transform="translate(585.146735, 575.914848)"><g><path d="M 22.03125 -1.359375 C 21.21875 -0.765625 20.222656 -0.316406 19.046875 -0.015625 C 17.878906 0.273438 16.644531 0.421875 15.34375 0.421875 C 11.976562 0.421875 9.375 -0.4375 7.53125 -2.15625 C 5.695312 -3.875 4.78125 -6.394531 4.78125 -9.71875 L 4.78125 -21.34375 L 0.421875 -21.34375 L 0.421875 -27.640625 L 4.78125 -27.640625 L 4.78125 -34.53125 L 12.984375 -34.53125 L 12.984375 -27.640625 L 20.03125 -27.640625 L 20.03125 -21.34375 L 12.984375 -21.34375 L 12.984375 -9.828125 C 12.984375 -8.640625 13.289062 -7.71875 13.90625 -7.0625 C 14.519531 -6.414062 15.382812 -6.09375 16.5 -6.09375 C 17.800781 -6.09375 18.90625 -6.445312 19.8125 -7.15625 Z M 22.03125 -1.359375 "/></g></g></g><g fill="#000000" fill-opacity="1"><g transform="translate(608.003035, 575.914848)"><g><path d="M 11.609375 -24.546875 C 12.597656 -25.910156 13.921875 -26.941406 15.578125 -27.640625 C 17.242188 -28.347656 19.164062 -28.703125 21.34375 -28.703125 L 21.34375 -21.125 C 20.425781 -21.195312 19.8125 -21.234375 19.5 -21.234375 C 17.15625 -21.234375 15.316406 -20.578125 13.984375 -19.265625 C 12.648438 -17.953125 11.984375 -15.976562 11.984375 -13.34375 L 11.984375 0 L 3.78125 0 L 3.78125 -28.28125 L 11.609375 -28.28125 Z M 11.609375 -24.546875 "/></g></g></g><g fill="#000000" fill-opacity="1"><g transform="translate(630.649204, 575.914848)"><g><path d="M 31.859375 -28.28125 L 19.078125 1.734375 C 17.785156 4.992188 16.179688 7.289062 14.265625 8.625 C 12.359375 9.957031 10.054688 10.625 7.359375 10.625 C 5.890625 10.625 4.4375 10.394531 3 9.9375 C 1.5625 9.476562 0.382812 8.847656 -0.53125 8.046875 L 2.46875 2.203125 C 3.101562 2.765625 3.832031 3.203125 4.65625 3.515625 C 5.476562 3.835938 6.289062 4 7.09375 4 C 8.21875 4 9.128906 3.722656 9.828125 3.171875 C 10.523438 2.628906 11.15625 1.726562 11.71875 0.46875 L 11.828125 0.203125 L -0.421875 -28.28125 L 8.046875 -28.28125 L 15.984375 -9.09375 L 23.96875 -28.28125 Z M 31.859375 -28.28125 "/></g></g></g><g fill="#000000" fill-opacity="1"><g transform="translate(662.056096, 575.914848)"><g/></g></g></svg>