<svg xmlns="http://www.w3.org/2000/svg" xmlns:xlink="http://www.w3.org/1999/xlink" width="1080" zoomAndPan="magnify" viewBox="0 0 810 1439.999935" height="1920" preserveAspectRatio="xMidYMid meet" version="1.0"><defs><clipPath id="27dd622858"><path d="M 23.105469 362 L 786.605469 362 L 786.605469 1126 L 23.105469 1126 Z M 23.105469 362 " clip-rule="nonzero"/></clipPath><clipPath id="64bbe51ec4"><path d="M 305 136.121094 L 697 136.121094 L 697 950 L 305 950 Z M 305 136.121094 " clip-rule="nonzero"/></clipPath></defs><g clip-path="url(#27dd622858)"><path fill="#69a2cd" d="M 674.8125 474.191406 C 637.914062 437.300781 594.777344 408.90625 547.804688 389.949219 C 544.449219 397.359375 541.085938 404.972656 537.726562 412.808594 C 668.96875 465.625 761.863281 594.25 761.863281 744.171875 C 761.863281 941.027344 601.714844 1101.1875 404.855469 1101.1875 C 208.003906 1101.1875 47.851562 941.027344 47.851562 744.171875 C 47.851562 547.304688 208.003906 387.148438 404.855469 387.148438 C 428.0625 387.148438 450.757812 389.402344 472.75 393.652344 C 476.757812 385.882812 480.800781 378.246094 484.886719 370.753906 C 458.863281 365.230469 432.085938 362.367188 404.855469 362.367188 C 302.882812 362.367188 207.007812 402.089844 134.902344 474.191406 C 62.789062 546.308594 23.078125 642.1875 23.078125 744.171875 C 23.078125 846.144531 62.789062 942.023438 134.902344 1014.136719 C 207.007812 1086.253906 302.882812 1125.960938 404.855469 1125.960938 C 506.835938 1125.960938 602.699219 1086.253906 674.8125 1014.136719 C 746.917969 942.023438 786.628906 846.144531 786.628906 744.171875 C 786.628906 642.1875 746.917969 546.308594 674.8125 474.191406 " fill-opacity="1" fill-rule="nonzero"/></g><g clip-path="url(#64bbe51ec4)"><path fill="#4f4c4c" d="M 696.921875 136.277344 C 584.71875 218.890625 460.234375 371.914062 350.984375 755.195312 C 341.996094 786.734375 330.503906 817.347656 314.652344 846.046875 C 309.050781 856.191406 305.847656 867.960938 305.847656 880.496094 C 305.847656 918.683594 335.523438 949.632812 372.125 949.632812 C 408.734375 949.632812 438.410156 918.683594 438.410156 880.496094 C 438.410156 874.710938 437.714844 869.089844 436.433594 863.710938 C 421.804688 802.644531 425.433594 740.03125 438.945312 678.699219 C 525.070312 287.613281 696.921875 136.277344 696.921875 136.277344 " fill-opacity="1" fill-rule="nonzero"/></g><path fill="#f3b87c" d="M 450.117188 860.433594 C 451.675781 866.964844 452.476562 873.714844 452.476562 880.496094 C 452.476562 926.375 416.425781 963.699219 372.125 963.699219 C 327.820312 963.699219 291.777344 926.375 291.777344 880.496094 C 291.777344 866.023438 295.429688 851.757812 302.335938 839.253906 C 316.332031 813.90625 327.820312 785.152344 337.457031 751.339844 C 338.140625 748.9375 338.832031 746.5625 339.515625 744.171875 L 83.417969 744.171875 C 83.417969 921.699219 227.332031 1065.617188 404.855469 1065.617188 C 582.382812 1065.617188 726.289062 921.699219 726.289062 744.171875 L 442.792969 744.171875 C 438.976562 785.699219 441.421875 824.117188 450.117188 860.433594 " fill-opacity="1" fill-rule="nonzero"/></svg>