<svg xmlns="http://www.w3.org/2000/svg" xmlns:xlink="http://www.w3.org/1999/xlink" width="1080" zoomAndPan="magnify" viewBox="0 0 810 1439.999935" height="1920" preserveAspectRatio="xMidYMid meet" version="1.0"><defs><clipPath id="e8d7a1176a"><path d="M 93.457031 685 L 716.707031 685 L 716.707031 1006.375 L 93.457031 1006.375 Z M 93.457031 685 " clip-rule="nonzero"/></clipPath><clipPath id="415be72bf9"><path d="M 298 500.125 L 513 500.125 L 513 773 L 298 773 Z M 298 500.125 " clip-rule="nonzero"/></clipPath></defs><g clip-path="url(#e8d7a1176a)"><path fill="#000000" d="M 689.0625 855.421875 C 700.03125 818.351562 706.949219 779.105469 706.949219 753.25 C 706.949219 713.128906 682.894531 685.15625 648.558594 685.09375 L 648.496094 685.09375 C 634.660156 685.09375 625.625 688.207031 617.648438 690.949219 C 611.414062 693.128906 606.492188 694.8125 599.824219 694.8125 C 593.15625 694.8125 588.234375 693.128906 582 690.949219 C 574.023438 688.207031 565.050781 685.09375 551.15625 685.09375 L 551.09375 685.09375 C 516.691406 685.09375 492.699219 713.128906 492.699219 753.25 C 492.699219 777.921875 499.058594 814.988281 509.214844 850.625 L 503.667969 850.625 C 481.296875 850.625 461.851562 865.761719 456.433594 887.503906 L 451.695312 906.382812 C 448.457031 919.402344 436.800781 928.5 423.339844 928.5 L 386.761719 928.5 C 373.363281 928.5 361.648438 919.402344 358.40625 906.382812 L 353.671875 887.503906 C 348.25 865.824219 328.804688 850.625 306.433594 850.625 L 300.886719 850.625 C 311.042969 815.050781 317.402344 777.921875 317.402344 753.25 C 317.402344 713.128906 293.347656 685.15625 259.007812 685.09375 L 258.949219 685.09375 C 245.113281 685.09375 236.078125 688.207031 228.101562 690.949219 C 221.867188 693.128906 216.945312 694.8125 210.277344 694.8125 C 203.609375 694.8125 198.6875 693.128906 192.453125 690.949219 C 184.476562 688.207031 175.503906 685.09375 161.605469 685.09375 L 161.546875 685.09375 C 127.144531 685.09375 103.152344 713.128906 103.152344 753.25 C 103.152344 779.105469 110.070312 818.351562 121.039062 855.421875 C 104.773438 863.269531 93.492188 879.96875 93.492188 899.28125 L 93.492188 996.65625 C 93.492188 1002.011719 97.855469 1006.375 103.214844 1006.375 L 706.886719 1006.375 C 712.246094 1006.375 716.609375 1002.011719 716.609375 996.65625 L 716.609375 899.28125 C 716.671875 879.96875 705.390625 863.269531 689.0625 855.421875 Z M 512.144531 753.25 C 512.144531 729.015625 524.171875 704.59375 551.09375 704.59375 L 551.15625 704.59375 C 561.75 704.59375 568.480469 706.960938 575.582031 709.390625 C 582.5625 711.820312 589.855469 714.3125 599.761719 714.3125 C 609.671875 714.3125 616.960938 711.820312 623.941406 709.390625 C 631.046875 706.898438 637.777344 704.59375 648.371094 704.59375 L 648.433594 704.59375 C 675.351562 704.59375 687.378906 729.078125 687.378906 753.25 C 687.378906 777.421875 680.652344 815.050781 670.054688 850.625 C 669.308594 850.5625 668.625 850.5625 667.875 850.5625 L 529.46875 850.5625 C 518.875 815.050781 512.144531 777.484375 512.144531 753.25 Z M 122.660156 753.25 C 122.660156 729.015625 134.6875 704.59375 161.605469 704.59375 L 161.667969 704.59375 C 172.261719 704.59375 178.992188 706.960938 186.097656 709.390625 C 193.078125 711.820312 200.367188 714.3125 210.277344 714.3125 C 220.1875 714.3125 227.476562 711.820312 234.457031 709.390625 C 241.5625 706.898438 248.292969 704.59375 258.886719 704.59375 L 258.949219 704.59375 C 285.867188 704.59375 297.894531 729.078125 297.894531 753.25 C 297.894531 777.421875 291.164062 815.050781 280.570312 850.625 L 142.101562 850.625 C 141.355469 850.625 140.667969 850.625 139.921875 850.6875 C 129.390625 815.050781 122.660156 777.546875 122.660156 753.25 Z M 697.164062 986.875 L 112.9375 986.875 L 112.9375 899.28125 C 112.9375 883.207031 126.023438 870.0625 142.164062 870.0625 L 287.800781 870.0625 C 287.800781 870.0625 287.863281 870.0625 287.863281 870.0625 L 306.496094 870.0625 C 319.894531 870.0625 331.609375 879.15625 334.851562 892.179688 L 339.585938 911.054688 C 345.007812 932.734375 364.449219 947.9375 386.824219 947.9375 L 423.402344 947.9375 C 445.777344 947.9375 465.21875 932.796875 470.640625 911.054688 L 475.375 892.179688 C 478.617188 879.15625 490.269531 870.0625 503.730469 870.0625 L 522.238281 870.0625 C 522.238281 870.0625 522.300781 870.0625 522.300781 870.0625 L 667.9375 870.0625 C 684.015625 870.0625 697.164062 883.144531 697.164062 899.28125 Z M 697.164062 986.875 " fill-opacity="1" fill-rule="nonzero"/></g><path fill="#000000" d="M 405.082031 792.1875 C 399.722656 792.1875 395.359375 796.546875 395.359375 801.90625 L 395.359375 856.292969 L 382.773438 843.707031 C 378.972656 839.910156 372.800781 839.910156 369 843.707031 C 365.199219 847.507812 365.199219 853.675781 369 857.476562 L 398.226562 886.695312 C 400.097656 888.566406 402.652344 889.5625 405.144531 889.5625 C 407.636719 889.5625 410.128906 888.628906 412.0625 886.695312 L 441.289062 857.476562 C 445.089844 853.675781 445.089844 847.507812 441.289062 843.707031 C 437.488281 839.910156 431.316406 839.910156 427.515625 843.707031 L 414.929688 856.292969 L 414.929688 801.90625 C 414.804688 796.546875 410.441406 792.1875 405.082031 792.1875 Z M 405.082031 792.1875 " fill-opacity="1" fill-rule="nonzero"/><g clip-path="url(#415be72bf9)"><path fill="#000000" d="M 319.332031 655.875 L 357.84375 655.875 L 361.085938 675.375 L 356.351562 675.375 C 350.992188 675.375 346.628906 679.734375 346.628906 685.09375 C 346.628906 690.449219 350.992188 694.8125 356.351562 694.8125 L 364.328125 694.8125 L 367.566406 714.3125 L 366.070312 714.3125 C 360.710938 714.3125 356.351562 718.671875 356.351562 724.03125 C 356.351562 729.386719 360.710938 733.75 366.070312 733.75 L 370.808594 733.75 L 375.917969 764.589844 C 376.726562 769.261719 380.777344 772.6875 385.515625 772.6875 L 424.460938 772.6875 C 429.199219 772.6875 433.3125 769.261719 434.058594 764.589844 L 439.167969 733.75 L 443.90625 733.75 C 449.265625 733.75 453.628906 729.386719 453.628906 724.03125 C 453.628906 718.671875 449.265625 714.3125 443.90625 714.3125 L 442.410156 714.3125 L 445.652344 694.8125 L 453.628906 694.8125 C 458.988281 694.8125 463.347656 690.449219 463.347656 685.09375 C 463.347656 679.734375 458.988281 675.375 453.628906 675.375 L 448.890625 675.375 L 452.132812 655.875 L 490.644531 655.875 C 495.132812 655.875 498.996094 652.820312 500.117188 648.460938 C 507.71875 617.933594 512.082031 588.714844 512.082031 568.21875 C 512.207031 528.160156 488.152344 500.125 453.753906 500.125 L 453.691406 500.125 C 439.855469 500.125 430.820312 503.238281 422.84375 505.980469 C 416.609375 508.160156 411.6875 509.84375 405.019531 509.84375 C 398.351562 509.84375 393.429688 508.160156 387.195312 505.980469 C 379.34375 503.238281 370.308594 500.125 356.472656 500.125 L 356.410156 500.125 C 322.011719 500.125 298.019531 528.160156 298.019531 568.28125 C 298.019531 588.777344 302.382812 617.996094 309.984375 648.523438 C 310.984375 652.820312 314.910156 655.875 319.332031 655.875 Z M 416.300781 753.25 L 393.863281 753.25 L 390.625 733.75 L 419.539062 733.75 Z M 422.78125 714.3125 L 387.320312 714.3125 L 384.082031 694.8125 L 426.019531 694.8125 Z M 429.261719 675.375 L 380.839844 675.375 L 377.601562 655.875 L 432.5 655.875 Z M 356.351562 519.625 C 366.945312 519.6875 373.738281 521.929688 380.839844 524.421875 C 387.820312 526.851562 395.109375 529.34375 405.019531 529.34375 C 414.929688 529.34375 422.21875 526.851562 429.199219 524.421875 C 436.304688 521.929688 443.035156 519.625 453.628906 519.625 L 453.691406 519.625 C 480.609375 519.625 492.636719 544.109375 492.636719 568.28125 C 492.636719 585.601562 489.148438 610.144531 483.042969 636.4375 L 327 636.4375 C 320.890625 610.144531 317.402344 585.601562 317.402344 568.28125 C 317.402344 544.046875 329.492188 519.625 356.351562 519.625 Z M 356.351562 519.625 " fill-opacity="1" fill-rule="nonzero"/></g></svg>