<svg xmlns="http://www.w3.org/2000/svg" xmlns:xlink="http://www.w3.org/1999/xlink" width="1080" zoomAndPan="magnify" viewBox="0 0 810 1439.999935" height="1920" preserveAspectRatio="xMidYMid meet" version="1.0"><defs><clipPath id="3b0afb2b79"><path d="M 551 976 L 766.5 976 L 766.5 1025 L 551 1025 Z M 551 976 " clip-rule="nonzero"/></clipPath><clipPath id="05feabef3a"><path d="M 81 895 L 766.5 895 L 766.5 1079 L 81 1079 Z M 81 895 " clip-rule="nonzero"/></clipPath><clipPath id="0ca60c1442"><path d="M 707 1107 L 766.5 1107 L 766.5 1121 L 707 1121 Z M 707 1107 " clip-rule="nonzero"/></clipPath><clipPath id="ed637201ca"><path d="M 269 1181 L 329 1181 L 329 1195.703125 L 269 1195.703125 Z M 269 1181 " clip-rule="nonzero"/></clipPath><clipPath id="c696511794"><path d="M 394 1181 L 454 1181 L 454 1195.703125 L 394 1195.703125 Z M 394 1181 " clip-rule="nonzero"/></clipPath><clipPath id="c097796b4f"><path d="M 144 1181 L 204 1181 L 204 1195.703125 L 144 1195.703125 Z M 144 1181 " clip-rule="nonzero"/></clipPath><clipPath id="83d3411569"><path d="M 518 1181 L 579 1181 L 579 1195.703125 L 518 1195.703125 Z M 518 1181 " clip-rule="nonzero"/></clipPath><clipPath id="85e816d46b"><path d="M 644 1181 L 704 1181 L 704 1195.703125 L 644 1195.703125 Z M 644 1181 " clip-rule="nonzero"/></clipPath></defs><path stroke-linecap="round" transform="matrix(0.913756, 0, 0, 0.912994, -32.762638, 412.902208)" fill="none" stroke-linejoin="round" d="M 528.917509 499.254945 C 530.986578 547.050155 564.296883 552.945939 564.296883 611.283393 C 564.296883 646.298701 535.902755 674.690879 500.844002 674.690879 C 465.785249 674.690879 437.361197 646.298701 437.361197 611.283393 C 437.361197 595.290331 444.692713 568.682291 459.830262 546.485392 C 468.123639 534.325873 473.655406 520.527686 475.591953 505.942253 C 486.296393 425.369394 546.684145 230.761467 656.007093 150.385419 C 656.007093 150.385419 520.294962 299.658278 528.917509 499.254945 Z M 528.917509 499.254945 " stroke="#000000" stroke-width="15" stroke-opacity="1" stroke-miterlimit="10"/><g clip-path="url(#3b0afb2b79)"><path stroke-linecap="round" transform="matrix(0.913756, 0, 0, 0.912994, -32.762638, 412.902208)" fill="none" stroke-linejoin="round" d="M 646.850179 636.364006 C 655.908769 629.873509 666.608935 624.713629 683.588982 624.713629 C 729.488974 624.713629 729.488974 662.41584 775.401791 662.41584 C 821.301783 662.41584 821.301783 624.713629 867.210324 624.713629 " stroke="#000000" stroke-width="15" stroke-opacity="1" stroke-miterlimit="10"/></g><path stroke-linecap="round" transform="matrix(0.913756, 0, 0, 0.912994, -32.762638, 412.902208)" fill="none" stroke-linejoin="round" d="M 132.789079 624.713629 C 178.689071 624.713629 178.689071 662.41584 224.589063 662.41584 C 270.489055 662.41584 270.489055 624.713629 316.389047 624.713629 C 332.9587 624.713629 343.551993 629.625356 352.46951 635.901927 " stroke="#000000" stroke-width="15" stroke-opacity="1" stroke-miterlimit="10"/><g clip-path="url(#05feabef3a)"><path stroke-linecap="round" transform="matrix(0.913756, 0, 0, 0.912994, -32.762638, 412.902208)" fill="none" stroke-linejoin="round" d="M 132.789079 536.11429 L 411.450807 536.11429 C 384.659781 585.522498 385.890963 629.514115 402.661538 662.21475 C 421.419959 698.864448 459.680639 721.322335 499.818017 721.322335 C 543.64039 721.322335 578.780367 697.525275 596.611127 662.266092 C 614.240964 627.421924 614.980528 581.402295 590.497968 536.11429 L 867.210324 536.11429 " stroke="#000000" stroke-width="15" stroke-opacity="1" stroke-miterlimit="10"/></g><path stroke-linecap="round" transform="matrix(0.913756, 0, 0, 0.912994, -32.762638, 412.902208)" fill="none" stroke-linejoin="round" d="M 132.793354 768.017969 L 182.656212 768.017969 " stroke="#000000" stroke-width="15" stroke-opacity="1" stroke-miterlimit="10"/><path stroke-linecap="round" transform="matrix(0.913756, 0, 0, 0.912994, -32.762638, 412.902208)" fill="none" stroke-linejoin="round" d="M 406.782577 768.017969 L 456.645435 768.017969 " stroke="#000000" stroke-width="15" stroke-opacity="1" stroke-miterlimit="10"/><path stroke-linecap="round" transform="matrix(0.913756, 0, 0, 0.912994, -32.762638, 412.902208)" fill="none" stroke-linejoin="round" d="M 543.358244 768.017969 L 593.221102 768.017969 " stroke="#000000" stroke-width="15" stroke-opacity="1" stroke-miterlimit="10"/><path stroke-linecap="round" transform="matrix(0.913756, 0, 0, 0.912994, -32.762638, 412.902208)" fill="none" stroke-linejoin="round" d="M 270.202634 768.017969 L 320.065492 768.017969 " stroke="#000000" stroke-width="15" stroke-opacity="1" stroke-miterlimit="10"/><path stroke-linecap="round" transform="matrix(0.913756, 0, 0, 0.912994, -32.762638, 412.902208)" fill="none" stroke-linejoin="round" d="M 679.938187 768.017969 L 729.801044 768.017969 " stroke="#000000" stroke-width="15" stroke-opacity="1" stroke-miterlimit="10"/><g clip-path="url(#0ca60c1442)"><path stroke-linecap="round" transform="matrix(0.913756, 0, 0, 0.912994, -32.762638, 412.902208)" fill="none" stroke-linejoin="round" d="M 817.347467 768.017969 L 867.210324 768.017969 " stroke="#000000" stroke-width="15" stroke-opacity="1" stroke-miterlimit="10"/></g><g clip-path="url(#ed637201ca)"><path stroke-linecap="round" transform="matrix(0.913756, 0, 0, 0.912994, -32.762638, 412.902208)" fill="none" stroke-linejoin="round" d="M 338.075799 849.61767 L 387.942932 849.61767 " stroke="#000000" stroke-width="15" stroke-opacity="1" stroke-miterlimit="10"/></g><g clip-path="url(#c696511794)"><path stroke-linecap="round" transform="matrix(0.913756, 0, 0, 0.912994, -32.762638, 412.902208)" fill="none" stroke-linejoin="round" d="M 474.655742 849.61767 L 524.5186 849.61767 " stroke="#000000" stroke-width="15" stroke-opacity="1" stroke-miterlimit="10"/></g><g clip-path="url(#c097796b4f)"><path stroke-linecap="round" transform="matrix(0.913756, 0, 0, 0.912994, -32.762638, 412.902208)" fill="none" stroke-linejoin="round" d="M 201.500132 849.61767 L 251.36299 849.61767 " stroke="#000000" stroke-width="15" stroke-opacity="1" stroke-miterlimit="10"/></g><g clip-path="url(#83d3411569)"><path stroke-linecap="round" transform="matrix(0.913756, 0, 0, 0.912994, -32.762638, 412.902208)" fill="none" stroke-linejoin="round" d="M 611.231409 849.61767 L 661.094267 849.61767 " stroke="#000000" stroke-width="15" stroke-opacity="1" stroke-miterlimit="10"/></g><g clip-path="url(#85e816d46b)"><path stroke-linecap="round" transform="matrix(0.913756, 0, 0, 0.912994, -32.762638, 412.902208)" fill="none" stroke-linejoin="round" d="M 748.640689 849.61767 L 798.507822 849.61767 " stroke="#000000" stroke-width="15" stroke-opacity="1" stroke-miterlimit="10"/></g><path stroke-linecap="round" transform="matrix(0.913756, 0, 0, 0.912994, -32.762638, 412.902208)" fill="none" stroke-linejoin="round" d="M 132.789079 221.652523 C 137.311962 225.832626 142.027217 230.346451 146.913469 235.232507 C 169.100389 257.420849 189.064342 281.838293 206.471883 308.134002 C 219.185544 327.344502 245.104483 331.443312 263.020741 318.299736 C 264.645217 317.106032 266.201294 315.775416 267.680422 314.295053 C 277.833396 304.137875 286.532891 295.439669 296.694415 285.278213 C 314.456776 267.518127 311.485695 237.940803 290.529957 224.078437 C 264.234823 206.669189 239.816387 186.705672 217.629467 164.51733 C 212.781689 159.669781 208.267356 154.950587 204.056544 150.385419 " stroke="#000000" stroke-width="15" stroke-opacity="1" stroke-miterlimit="10"/><path stroke-linecap="round" transform="matrix(0.913756, 0, 0, 0.912994, -32.762638, 412.902208)" fill="none" stroke-linejoin="round" d="M 325.041518 301.955836 L 285.857451 341.138411 " stroke="#000000" stroke-width="15" stroke-opacity="1" stroke-miterlimit="10"/><path stroke-linecap="round" transform="matrix(0.913756, 0, 0, 0.912994, -32.762638, 412.902208)" fill="none" stroke-linejoin="round" d="M 301.931212 278.843337 L 325.041518 301.955836 L 350.622737 338.010822 C 352.525084 340.697724 351.443525 344.454254 348.404046 345.712136 C 339.896922 349.233347 333.133973 355.989111 329.6157 364.499063 C 328.358869 367.536804 324.596925 368.623545 321.91654 366.719609 L 285.857451 341.138411 L 263.020741 318.299736 " stroke="#000000" stroke-width="15" stroke-opacity="1" stroke-miterlimit="10"/><path stroke-linecap="round" transform="matrix(0.913756, 0, 0, 0.912994, -32.762638, 412.902208)" fill="none" stroke-linejoin="round" d="M 242.248825 242.223589 C 242.248825 243.28038 242.146227 244.328615 241.94103 245.368292 C 241.731558 246.40797 241.428038 247.413419 241.021919 248.393197 C 240.6158 249.372975 240.119907 250.301412 239.534241 251.178506 C 238.9443 252.059878 238.277409 252.877073 237.529296 253.621534 C 236.781182 254.370273 235.964669 255.041998 235.084032 255.628154 C 234.203395 256.218588 233.275734 256.714895 232.296773 257.117075 C 231.317813 257.523533 230.308928 257.831585 229.274393 258.036954 C 228.235584 258.242322 227.18395 258.345006 226.12804 258.345006 C 225.067856 258.345006 224.020497 258.242322 222.981687 258.036954 C 221.942878 257.831585 220.933993 257.523533 219.955032 257.117075 C 218.980347 256.714895 218.048411 256.218588 217.167774 255.628154 C 216.287137 255.041998 215.474899 254.370273 214.726785 253.621534 C 213.978671 252.877073 213.307506 252.059878 212.72184 251.178506 C 212.131899 250.301412 211.636006 249.372975 211.229887 248.393197 C 210.828043 247.413419 210.520248 246.40797 210.315051 245.368292 C 210.105579 244.328615 210.00298 243.28038 210.00298 242.223589 C 210.00298 241.162519 210.105579 240.114285 210.315051 239.078886 C 210.520248 238.039208 210.828043 237.02948 211.229887 236.053981 C 211.636006 235.074202 212.131899 234.145766 212.72184 233.264394 C 213.307506 232.3873 213.978671 231.570105 214.726785 230.821366 C 215.474899 230.072627 216.291412 229.40518 217.167774 228.819024 C 218.048411 228.22859 218.980347 227.732283 219.955032 227.325825 C 220.933993 226.923645 221.942878 226.615593 222.981687 226.410224 C 224.020497 226.204856 225.067856 226.097893 226.12804 226.097893 C 227.18395 226.097893 228.235584 226.204856 229.274393 226.410224 C 230.308928 226.615593 231.317813 226.923645 232.296773 227.325825 C 233.275734 227.732283 234.203395 228.22859 235.084032 228.819024 C 235.964669 229.40518 236.781182 230.072627 237.529296 230.821366 C 238.277409 231.570105 238.9443 232.3873 239.534241 233.264394 C 240.119907 234.145766 240.6158 235.074202 241.021919 236.053981 C 241.428038 237.02948 241.731558 238.039208 241.94103 239.078886 C 242.146227 240.114285 242.248825 241.162519 242.248825 242.223589 Z M 242.248825 242.223589 " stroke="#000000" stroke-width="15" stroke-opacity="1" stroke-miterlimit="10"/><path stroke-linecap="round" transform="matrix(0.913756, 0, 0, 0.912994, -32.762638, 412.902208)" fill="none" stroke-linejoin="round" d="M 359.924999 376.021085 L 409.373188 425.472078 " stroke="#000000" stroke-width="15" stroke-opacity="1" stroke-miterlimit="10"/><path stroke-linecap="round" transform="matrix(0.913756, 0, 0, 0.912994, -32.762638, 412.902208)" fill="none" stroke-linejoin="round" d="M 286.036999 468.338448 L 270.642953 469.681899 " stroke="#000000" stroke-width="15" stroke-opacity="1" stroke-miterlimit="10"/><path stroke-linecap="round" transform="matrix(0.913756, 0, 0, 0.912994, -32.762638, 412.902208)" fill="none" stroke-linejoin="round" d="M 374.224661 460.620019 L 327.542356 464.705994 " stroke="#000000" stroke-width="15" stroke-opacity="1" stroke-miterlimit="10"/><path stroke-linecap="round" transform="matrix(0.913756, 0, 0, 0.912994, -32.762638, 412.902208)" fill="none" stroke-linejoin="round" d="M 468.794804 299.363061 L 465.148283 312.960158 " stroke="#000000" stroke-width="15" stroke-opacity="1" stroke-miterlimit="10"/><path stroke-linecap="round" transform="matrix(0.913756, 0, 0, 0.912994, -32.762638, 412.902208)" fill="none" stroke-linejoin="round" d="M 455.649374 348.407595 L 444.380642 390.461049 " stroke="#000000" stroke-width="15" stroke-opacity="1" stroke-miterlimit="10"/></svg>